#!OML:ASF F:\VICON\USERDATA\INSTALL\rory3\rory3.ASF
:FULLY-SPECIFIED
:DEGREES
145
root 0.105295 17.8957 -4.74742 -6.01392 -2.27014 -5.5273
lowerback 19.7379 0.38174 4.45244
upperback 1.57196 1.94339 4.65037
thorax -9.3936 0.847367 2.01945
lowerneck -6.0374 -6.26027 -6.12496
upperneck 35.8327 -7.65624 -1.31638
head 13.2464 -4.34106 -0.424578
rclavicle -1.2921e-014 -4.21423e-014
rhumerus -25.5084 -39.1776 -63.8539
rradius 20.821
rwrist 4.55707
rhand -4.18475 -1.36775
rfingers 7.12502
rthumb 21.5765 -30.1858
lclavicle -1.2921e-014 -4.21423e-014
lhumerus -43.3432 5.1966 79.9709
lradius 54.9714
lwrist 9.13826
lhand -9.52988 49.6475
lfingers 7.12502
lthumb 16.4363 78.9712
rfemur -1.11005 5.37127 31.8312
rtibia 28.5274
rfoot -16.3635 -14.2528
rtoes 17.3059
lfemur -26.0136 -1.65006 -14.3419
ltibia 51.4611
lfoot -6.75514 2.72083
ltoes -14.9636
146
root 0.0931257 17.8975 -4.5604 -5.95201 -2.1864 -5.54453
lowerback 19.4329 0.468624 4.48274
upperback 1.73225 2.02705 4.62854
thorax -9.04601 0.890989 1.9534
lowerneck -6.06101 -6.42578 -6.3247
upperneck 35.7043 -7.9376 -1.06346
head 13.2287 -4.45647 -0.328221
rclavicle 1.83876e-014 4.53229e-014
rhumerus -26.614 -41.574 -62.5722
rradius 20.2044
rwrist 4.53062
rhand -4.95808 -0.452408
rfingers 7.12502
rthumb 20.8337 -29.3538
lclavicle 1.83876e-014 4.53229e-014
lhumerus -42.8615 5.61294 79.764
lradius 54.0369
lwrist 10.5908
lhand -11.4815 49.6019
lfingers 7.12502
lthumb 14.5566 79.0711
rfemur -0.157126 5.21139 31.9235
rtibia 27.9221
rfoot -16.7202 -14.2538
rtoes 16.6688
lfemur -26.1002 -1.65458 -14.2902
ltibia 48.956
lfoot -7.09507 3.29197
ltoes -14.6201
147
root 0.084985 17.8883 -4.37017 -5.89212 -2.09185 -5.33956
lowerback 19.3237 0.546579 4.31395
upperback 1.73996 2.07853 4.56202
thorax -8.98047 0.921838 1.96252
lowerneck -6.69836 -6.45098 -6.20101
upperneck 36.2246 -7.87401 -1.32158
head 13.5758 -4.43803 -0.483102
rclavicle 2.8625e-014 3.81667e-014
rhumerus -27.9271 -42.3677 -61.6455
rradius 20.3277
rwrist 3.24591
rhand -5.93972 -0.290124
rfingers 7.12502
rthumb 19.8903 -29.2923
lclavicle 2.8625e-014 3.81667e-014
lhumerus -43.0497 6.21438 79.429
lradius 53.5341
lwrist 11.2244
lhand -12.1558 48.9479
lfingers 7.12502
lthumb 13.9069 78.4628
rfemur 0.782592 4.79216 31.6697
rtibia 27.3463
rfoot -17.0551 -13.9663
rtoes 16.3797
lfemur -26.0672 -1.78122 -14.4874
ltibia 46.3696
lfoot -7.09416 4.33009
ltoes -13.0188
148
root 0.0739116 17.8851 -4.19044 -5.71898 -2.02972 -5.44596
lowerback 19.3039 0.596314 4.36511
upperback 1.6707 2.16059 4.58211
thorax -9.04574 0.958445 1.93452
lowerneck -5.43122 -6.51589 -6.69824
upperneck 35.0942 -8.13023 -0.738532
head 12.8754 -4.55147 -0.123386
rclavicle 6.75868e-015 4.77083e-015
rhumerus -29.1106 -42.3731 -61.1377
rradius 20.9193
rwrist 1.16987
rhand -7.23949 -0.871149
rfingers 7.12502
rthumb 18.6405 -29.998
lclavicle 6.75868e-015 4.77083e-015
lhumerus -43.518 7.29963 78.5719
lradius 52.747
lwrist 9.86453
lhand -10.1726 45.4864
lfingers 7.12502
lthumb 15.8174 74.8602
rfemur 1.59763 4.75866 31.8608
rtibia 26.6559
rfoot -17.2489 -14.0866
rtoes 15.2989
lfemur -26.1822 -2.01834 -14.2849
ltibia 43.6727
lfoot -7.04736 4.52873
ltoes -10.3494
149
root 0.0632692 17.8795 -4.02132 -5.43197 -1.93962 -5.66058
lowerback 19.3252 0.640593 4.54856
upperback 1.48659 2.27506 4.59752
thorax -9.25585 1.00239 1.81884
lowerneck -6.03762 -6.66922 -6.4843
upperneck 35.8427 -8.22159 -1.17321
head 13.3007 -4.61218 -0.385686
rclavicle 1.56046e-014 2.46493e-014
rhumerus -30.3388 -42.1367 -60.7366
rradius 21.6977
rwrist -1.27255
rhand -8.77928 -1.69068
rfingers 7.12502
rthumb 17.1589 -30.953
lclavicle 1.56046e-014 2.46493e-014
lhumerus -44.0437 7.68545 78.2037
lradius 52.5854
lwrist 10.6978
lhand -11.0043 47.3481
lfingers 7.12502
lthumb 15.0163 76.7836
rfemur 2.27107 4.8049 32.1998
rtibia 25.8954
rfoot -17.1797 -14.3955
rtoes 13.9977
lfemur -26.4789 -2.37654 -13.8957
ltibia 40.9409
lfoot -6.769 4.97918
ltoes -9.91026
150
root 0.0624821 17.8937 -3.81634 -5.23241 -2.01783 -5.68474
lowerback 18.9723 0.731516 4.6401
upperback 1.44735 2.38779 4.58089
thorax -9.09961 1.05459 1.72148
lowerneck -5.975 -6.72348 -6.70497
upperneck 35.7982 -8.32442 -0.98201
head 13.2961 -4.66182 -0.285032
rclavicle -4.6615e-014 -3.89618e-014
rhumerus -31.3685 -41.6518 -60.4834
rradius 22.5795
rwrist -4.14795
rhand -10.0023 -1.17504
rfingers 7.12502
rthumb 15.9815 -30.5358
lclavicle -4.6615e-014 -3.89618e-014
lhumerus -44.4779 8.36872 77.7029
lradius 52.0643
lwrist 10.8154
lhand -11.1842 47.4421
lfingers 7.12502
lthumb 14.8431 76.8904
rfemur 3.27716 4.48577 32.167
rtibia 25.0033
rfoot -17.1916 -14.2063
rtoes 14.1302
lfemur -26.3875 -2.77795 -13.7248
ltibia 38.1159
lfoot -6.42937 5.54957
ltoes -10.67
151
root 0.057187 17.8978 -3.62004 -5.08504 -2.22326 -5.77773
lowerback 18.8366 0.871321 4.71208
upperback 1.40763 2.57974 4.58658
thorax -9.06554 1.14382 1.63814
lowerneck -6.03148 -6.80309 -6.69038
upperneck 35.8014 -8.41931 -1.03705
head 13.3093 -4.70687 -0.324308
rclavicle 5.05907e-014 4.05521e-014
rhumerus -32.5185 -41.316 -60.1091
rradius 23.5728
rwrist -6.96216
rhand -10.6974 0.231359
rfingers 7.12502
rthumb 15.312 -29.1818
lclavicle 5.05907e-014 4.05521e-014
lhumerus -44.9633 9.08054 77.1342
lradius 51.4448
lwrist 11.1332
lhand -11.4376 47.2592
lfingers 7.12502
lthumb 14.599 76.7254
rfemur 4.2951 4.53667 32.3282
rtibia 24.1087
rfoot -17.1786 -14.2433
rtoes 14.9293
lfemur -26.209 -3.37659 -13.3472
ltibia 35.2984
lfoot -5.93038 6.22764
ltoes -10.8097
152
root 0.0522262 17.8939 -3.43045 -4.88277 -2.34206 -5.79751
lowerback 18.5916 0.980496 4.74225
upperback 1.46843 2.70045 4.53311
thorax -8.85797 1.2031 1.53381
lowerneck -6.3397 -6.92154 -6.62568
upperneck 35.7921 -8.56296 -1.09141
head 13.369 -4.76404 -0.389444
rclavicle -2.98177e-016 1.27222e-014
rhumerus -33.3898 -41.0704 -60.0127
rradius 24.5914
rwrist -9.50825
rhand -11.8544 0.565583
rfingers 7.12502
rthumb 14.1973 -28.9292
lclavicle -2.98177e-016 1.27222e-014
lhumerus -45.1698 9.79682 76.5005
lradius 50.7944
lwrist 11.2781
lhand -10.8447 48.7869
lfingers 7.12502
lthumb 15.1701 78.2108
rfemur 5.24153 4.60539 32.3889
rtibia 23.1941
rfoot -17.2666 -14.1385
rtoes 14.8952
lfemur -26.1311 -4.25998 -12.9759
ltibia 32.501
lfoot -5.38897 6.85972
ltoes -10.6708
153
root 0.0485887 17.8884 -3.24239 -4.64584 -2.42091 -5.88662
lowerback 18.3186 1.04327 4.77304
upperback 1.50589 2.76706 4.55814
thorax -8.66518 1.23821 1.53029
lowerneck -6.19102 -6.95977 -6.72744
upperneck 35.545 -8.61851 -1.03959
head 13.2396 -4.7956 -0.346038
rclavicle 5.06901e-015 1.19271e-014
rhumerus -34.0026 -40.4424 -60.1578
rradius 25.6627
rwrist -11.96
rhand -13.3163 0.0882244
rfingers 7.12502
rthumb 12.7882 -29.5001
lclavicle 5.06901e-015 1.19271e-014
lhumerus -45.6308 10.5402 75.9024
lradius 50.4671
lwrist 10.8924
lhand -9.73427 50.4861
lfingers 7.12502
lthumb 16.2395 79.826
rfemur 6.14504 4.64783 32.5318
rtibia 22.2838
rfoot -17.0581 -14.1597
rtoes 11.0697
lfemur -26.1101 -5.33167 -12.4508
ltibia 29.8089
lfoot -5.24304 7.54475
ltoes -10.1954
154
root 0.0457199 17.8865 -3.05087 -4.43706 -2.69151 -6.04295
lowerback 18.111 1.15883 4.83148
upperback 1.52918 2.91664 4.60494
thorax -8.52394 1.31143 1.51386
lowerneck -6.42839 -6.95003 -6.69377
upperneck 35.7041 -8.57679 -1.09389
head 13.3542 -4.77683 -0.382416
rclavicle -2.34566e-014 -4.53229e-014
rhumerus -34.6449 -40.0167 -60.1722
rradius 26.7433
rwrist -14.1886
rhand -14.2625 -0.1828
rfingers 7.12502
rthumb 11.8759 -29.826
lclavicle -2.34566e-014 -4.53229e-014
lhumerus -46.1815 11.2368 75.3106
lradius 49.9329
lwrist 10.8091
lhand -9.88791 50.3636
lfingers 7.12502
lthumb 16.0916 79.7155
rfemur 7.04001 4.72692 32.7411
rtibia 21.4446
rfoot -16.3935 -14.258
rtoes 8.42477
lfemur -26.0056 -6.47673 -11.7551
ltibia 27.288
lfoot -5.18169 8.59808
ltoes -10.594
